<svg xmlns="http://www.w3.org/2000/svg" viewBox="0 0 1764.83 1047.09"><defs><style>.cls-1{fill:#ffea9b;}.cls-2{fill:#fff1bb;}.cls-3{fill:#eacd8a;}.cls-4{fill:#f1e1ba;}.cls-5{fill:#010101;}.cls-6{fill:#4fae32;}.cls-7{fill:#e0c99b;}.cls-8,.cls-9{fill:#fff;}.cls-8{opacity:0.56;}</style></defs><g id="Layer_2" data-name="Layer 2"><g id="Layer_1-2" data-name="Layer 1"><rect class="cls-1" width="1763.8" height="652.41"/><rect class="cls-2" y="148.02" width="671.18" height="178.19"/><rect class="cls-2" x="59.54" y="289.59" width="611.64" height="71.52"/><rect class="cls-2" x="671.18" y="291.32" width="120.67" height="34.89"/><rect class="cls-2" y="50.19" width="854" height="241.13"/><rect class="cls-2" x="835.63" y="28.65" width="200.74" height="226.24"/><rect class="cls-2" x="1010.51" y="28.65" width="753.29" height="191.15"/><rect class="cls-2" x="1641.31" y="208.64" width="122.49" height="116.84"/><rect class="cls-2" x="1337.82" y="193.48" width="315.06" height="96.11"/><rect class="cls-2" x="1277.26" y="198.27" width="149.71" height="57.82"/><rect class="cls-2" y="0.01" width="671.18" height="178.19"/><rect class="cls-2" x="59.54" y="141.58" width="611.64" height="71.52"/><rect class="cls-2" x="671.18" y="143.3" width="120.67" height="34.89"/><rect class="cls-2" y="0.01" width="854" height="143.3"/><rect class="cls-2" x="835.63" y="0.01" width="200.74" height="106.87"/><rect class="cls-2" x="1010.51" y="0.01" width="753.29" height="71.78"/><rect class="cls-2" x="1641.31" y="60.62" width="122.49" height="116.84"/><rect class="cls-2" x="1337.82" y="45.47" width="315.06" height="96.11"/><rect class="cls-2" x="1277.26" y="50.25" width="149.71" height="57.82"/><polygon class="cls-3" points="1763.8 405.25 1763.8 652.41 1614.61 652.41 1614.61 335.58 1674.49 335.58 1674.49 371.87 1734.37 371.87 1734.37 405.25 1763.8 405.25"/><polygon class="cls-4" points="1614.61 372.15 1614.61 652.41 1124.9 652.41 1124.9 621.65 1184.78 621.65 1184.78 586.55 1247.38 586.55 1247.38 549.87 1309.99 549.87 1309.99 513.18 1368.75 513.18 1368.75 478.74 1426.79 478.74 1426.79 442.73 1489.4 442.73 1489.4 408.84 1552 408.84 1552 372.15 1614.61 372.15"/><polygon class="cls-4" points="708.58 475.79 708.58 652.41 397.26 652.41 397.26 630.94 440.92 630.94 440.92 605.36 486.58 605.36 486.58 578.62 532.2 578.62 532.2 551.86 575.04 551.86 575.04 526.78 617.36 526.78 617.36 500.5 662.99 500.5 662.99 475.79 708.58 475.79"/><rect class="cls-5" x="754.2" y="449.05" width="0.07" height="26.74"/><polygon class="cls-3" points="1065.56 630.94 1065.56 652.41 708.58 652.41 708.58 475.79 708.65 475.79 708.65 449.05 754.21 449.05 754.21 475.79 799.83 475.79 799.83 500.5 845.49 500.5 845.49 526.78 887.82 526.78 887.82 551.86 930.62 551.86 930.62 578.62 976.28 578.62 976.28 605.36 1021.91 605.36 1021.91 630.94 1065.56 630.94"/><rect class="cls-6" x="708.57" y="449.05" width="0.07" height="26.74"/><polygon class="cls-4" points="141.74 557.07 141.74 652.41 0 652.41 0 628.73 18.95 628.73 18.95 613.95 44.16 613.95 44.16 599.14 67.88 599.14 67.88 585.28 91.29 585.28 91.29 570.74 116.5 570.74 116.5 557.07 141.74 557.07"/><rect class="cls-6" x="166.96" y="542.28" width="0.04" height="14.79"/><polygon class="cls-3" points="339.19 652.41 339.19 642.88 315.03 642.88 315.03 628.73 289.78 628.73 289.78 613.95 264.54 613.95 264.54 599.14 240.85 599.14 240.85 585.28 217.45 585.28 217.45 570.74 192.2 570.74 192.2 557.07 166.99 557.07 166.96 557.07 166.96 542.29 141.78 542.29 141.78 557.07 141.74 557.07 141.74 652.41 339.19 652.41"/><rect class="cls-6" x="141.73" y="542.28" width="0.04" height="14.79"/><rect class="cls-7" y="646.51" width="1763.8" height="400.58"/><rect class="cls-8" x="1684.58" y="81.21" width="40.13" height="40.79"/><rect class="cls-8" x="1684.58" y="235.25" width="40.13" height="42.83"/><rect class="cls-8" x="1724.71" y="121.99" width="40.12" height="113.25"/><rect class="cls-8" x="1568.2" y="40.44" width="116.38" height="40.77"/><polygon class="cls-9" points="1724.71 122 1724.71 235.25 1684.58 235.25 1684.58 278.08 1568.2 278.08 1568.2 235.25 1528.07 235.25 1528.07 122 1568.2 122 1568.2 81.21 1684.58 81.21 1684.58 122 1724.71 122"/><rect class="cls-8" x="1528.07" y="81.21" width="40.13" height="40.79"/><rect class="cls-8" x="1528.07" y="235.25" width="40.13" height="42.83"/><rect class="cls-8" x="1568.2" y="278.08" width="116.38" height="40.77"/><rect class="cls-8" x="1487.95" y="121.99" width="40.12" height="113.25"/></g></g></svg>