<svg xmlns="http://www.w3.org/2000/svg" viewBox="0 0 962 284.77"><defs><style>.cls-1{fill:#d9bf9a;}.cls-2{fill:#a3927e;}</style></defs><g id="Layer_2" data-name="Layer 2"><g id="background"><polygon class="cls-1" points="941.04 115.91 941.04 128.54 921.1 128.54 921.1 134.84 941.04 134.84 941.04 184.77 921.1 184.77 921.1 191.03 901.04 191.03 901.04 197.3 921.1 197.3 921.1 203.56 941.04 203.56 941.04 246.24 921.1 246.24 921.1 252.5 941.04 252.5 941.04 264.95 921.1 264.95 921.1 271.21 900.28 271.21 900.28 284.77 860.17 284.77 860.17 278.51 821.88 278.51 821.88 272.25 802.76 272.25 802.76 284.77 280.03 284.77 280.03 278.51 240.78 278.51 240.78 284.77 159.1 284.77 159.1 278.51 139.77 278.51 139.77 272.25 120.44 272.25 120.44 284.77 58.05 284.77 58.05 278.51 38.69 278.51 38.69 278.52 19.33 278.52 19.33 265.98 1.25 265.98 1.25 259.38 19.33 259.38 19.33 246.84 1.25 246.84 1.25 135.53 20.58 135.53 20.58 122.52 1.25 122.52 1.25 116.49 20.58 116.49 20.58 104.29 121.95 104.29 121.95 110.33 141.28 110.33 141.28 104.29 180.32 104.29 180.32 122.39 201.16 122.39 201.19 110.1 220.49 110.1 220.49 104.29 319.36 104.29 319.36 110.21 340.4 110.21 340.4 104.29 560.75 104.29 560.75 110.21 622.9 110.21 622.9 104.29 799.21 104.29 799.21 116.24 822.26 116.24 822.26 110.21 862.96 110.21 862.96 104.29 901.04 104.29 901.04 115.91 941.04 115.91"/><rect class="cls-2" x="901.04" y="128.54" width="20.06" height="6.31"/><rect class="cls-2" x="860.35" y="134.84" width="20.06" height="6.26"/><rect class="cls-2" x="840.3" y="122.28" width="20.06" height="6.26"/><rect class="cls-2" x="840.3" y="141.11" width="20.06" height="6.26"/><rect class="cls-2" x="860.35" y="147.37" width="20.06" height="6.26"/><rect class="cls-2" x="841.02" y="253.4" width="20.06" height="6.26"/><rect class="cls-2" x="761.37" y="259.67" width="20.06" height="6.26"/><rect class="cls-2" x="921.1" y="121.91" width="40.9" height="6.62"/><rect class="cls-2" x="880.98" y="109.64" width="20.06" height="6.26"/><rect class="cls-2" x="901.04" y="115.91" width="40.12" height="6.26"/><rect class="cls-2" x="901.04" y="184.77" width="20.06" height="6.26"/><rect class="cls-2" x="880.98" y="191.03" width="20.06" height="6.26"/><rect class="cls-2" x="901.04" y="197.3" width="20.06" height="6.26"/><rect class="cls-2" x="901.04" y="246.24" width="20.06" height="6.26"/><rect class="cls-2" x="860.17" y="278.51" width="20.06" height="6.26"/><rect class="cls-2" x="499.21" y="278.51" width="303.54" height="6.26"/><rect class="cls-2" x="280.03" y="278.51" width="199.13" height="6.26"/><rect class="cls-2" x="159.1" y="278.51" width="81.69" height="6.26"/><rect class="cls-2" x="58.05" y="278.51" width="62.38" height="6.26"/><rect class="cls-2" x="240.78" y="272.25" width="58.14" height="6.26"/><rect class="cls-2" x="782.7" y="272.25" width="20.06" height="12.52"/><rect class="cls-2" x="479.15" y="272.25" width="20.06" height="6.26"/><rect class="cls-2" x="821.88" y="272.25" width="38.28" height="6.26"/><rect class="cls-2" x="802.76" y="265.99" width="38.26" height="6.26"/><rect class="cls-2" x="880.23" y="271.21" width="20.06" height="13.57"/><rect class="cls-2" x="880.23" y="264.95" width="40.87" height="6.26"/><rect class="cls-2" x="921.1" y="252.5" width="39.88" height="12.45"/><rect class="cls-2" x="921.1" y="203.56" width="20.06" height="42.68"/><rect class="cls-2" x="921.1" y="134.84" width="20.06" height="49.93"/><rect class="cls-2" x="261.42" y="266.47" width="19.33" height="6.03"/><rect class="cls-2" x="139.77" y="272.25" width="19.33" height="6.26"/><rect class="cls-2" x="120.44" y="266.22" width="19.33" height="6.03"/><rect class="cls-2" x="101.1" y="272.25" width="19.33" height="7.13"/><rect class="cls-2" x="101.1" y="260.18" width="19.33" height="6.03"/><rect class="cls-2" x="60.21" y="253.34" width="19.33" height="6.03"/><rect class="cls-2" y="259.38" width="19.33" height="6.61"/><rect class="cls-2" x="25.41" y="271.91" width="32.65" height="6.61"/><rect class="cls-2" x="18.55" y="228.51" width="20.93" height="6.03"/><rect class="cls-2" x="39.48" y="222.47" width="20.93" height="6.03"/><rect class="cls-2" x="0.81" y="216.44" width="38.66" height="6.03"/><rect class="cls-2" x="0.81" y="228.51" width="19.33" height="18.33"/><rect class="cls-2" x="19.33" y="246.84" width="19.36" height="12.53"/><rect class="cls-2" x="19.33" y="265.98" width="19.36" height="12.54"/><rect class="cls-2" x="1.25" y="135.52" width="19.33" height="82.4"/><rect class="cls-2" x="20.58" y="103.84" width="100.29" height="6.26"/><rect class="cls-2" x="101.54" y="103.84" width="19.33" height="12.52"/><rect class="cls-2" x="1.25" y="116.49" width="19.33" height="6.03"/><rect class="cls-2" x="61.06" y="129.01" width="19.33" height="6.03"/><rect class="cls-2" x="102.92" y="135.52" width="19.33" height="6.03"/><rect class="cls-2" x="160.99" y="110.1" width="19.33" height="12.3"/><polygon class="cls-2" points="220.52 110.1 220.52 110.33 220.49 122.39 201.16 122.39 201.19 110.1 220.52 110.1"/><rect class="cls-2" x="120.87" y="110.32" width="19.33" height="6.03"/><rect class="cls-2" x="220.49" y="104.29" width="98.87" height="6.03"/><rect class="cls-2" x="180.32" y="122.39" width="20.84" height="6.03"/><rect class="cls-2" x="318.76" y="113.99" width="20.86" height="8.29"/><rect class="cls-2" x="298.52" y="110.21" width="41.1" height="6.03"/><rect class="cls-2" x="560.26" y="110.21" width="62.21" height="6.03"/><rect class="cls-2" x="779.88" y="110.21" width="19.33" height="6.03"/><rect class="cls-2" x="799.21" y="116.24" width="40.7" height="6.03"/><rect class="cls-2" x="822.26" y="110.21" width="40.7" height="6.03"/><rect class="cls-2" x="862.96" y="104.29" width="38.08" height="6.03"/><rect class="cls-2" x="622.47" y="104.29" width="176.74" height="6.03"/><rect class="cls-2" x="339.62" y="104.29" width="220.64" height="6.03"/><rect class="cls-2" x="140.2" y="104.29" width="40.12" height="6.03"/><rect class="cls-2" x="20.58" y="122.52" width="19.33" height="13"/><rect class="cls-2" x="20.58" y="107.92" width="19.33" height="8.57"/><polygon class="cls-1" points="941.04 12.07 941.04 24.7 921.1 24.7 921.1 31.01 941.04 31.01 941.04 80.94 921.1 80.94 921.1 87.2 901.04 87.2 901.04 93.46 921.1 93.46 921.1 99.72 941.04 99.72 941.04 142.4 921.1 142.4 921.1 148.66 941.04 148.66 941.04 161.11 921.1 161.11 921.1 167.37 900.28 167.37 900.28 180.94 860.17 180.94 860.17 174.68 821.88 174.68 821.88 168.42 802.76 168.42 802.76 180.94 280.03 180.94 280.03 174.68 240.78 174.68 240.78 180.94 159.1 180.94 159.1 174.68 139.77 174.68 139.77 168.42 120.44 168.42 120.44 180.94 58.05 180.94 58.05 174.68 38.69 174.68 38.69 174.69 19.33 174.69 19.33 162.15 1.25 162.15 1.25 155.54 19.33 155.54 19.33 143.01 1.25 143.01 1.25 31.69 20.58 31.69 20.58 18.68 1.25 18.68 1.25 12.65 20.58 12.65 20.58 0.45 121.95 0.45 121.95 6.49 141.28 6.49 141.28 0.45 180.32 0.45 180.32 18.56 201.16 18.56 201.19 6.26 220.49 6.26 220.49 0.45 319.36 0.45 319.36 6.37 340.4 6.37 340.4 0.45 560.75 0.45 560.75 6.37 622.9 6.37 622.9 0.45 799.21 0.45 799.21 12.4 822.26 12.4 822.26 6.37 862.96 6.37 862.96 0.45 901.04 0.45 901.04 12.07 941.04 12.07"/><rect class="cls-2" x="901.04" y="24.7" width="20.06" height="6.31"/><rect class="cls-2" x="860.35" y="31.01" width="20.06" height="6.26"/><rect class="cls-2" x="840.3" y="18.44" width="20.06" height="6.26"/><rect class="cls-2" x="840.3" y="37.27" width="20.06" height="6.26"/><rect class="cls-2" x="860.35" y="43.53" width="20.06" height="6.26"/><rect class="cls-2" x="841.02" y="149.57" width="20.06" height="6.26"/><rect class="cls-2" x="761.37" y="155.83" width="20.06" height="6.26"/><rect class="cls-2" x="921.1" y="18.08" width="40.9" height="6.62"/><rect class="cls-2" x="880.98" y="5.81" width="20.06" height="6.26"/><rect class="cls-2" x="901.04" y="12.07" width="40.12" height="6.26"/><rect class="cls-2" x="901.04" y="80.94" width="20.06" height="6.26"/><rect class="cls-2" x="880.98" y="87.2" width="20.06" height="6.26"/><rect class="cls-2" x="901.04" y="93.46" width="20.06" height="6.26"/><rect class="cls-2" x="901.04" y="142.4" width="20.06" height="6.26"/><rect class="cls-2" x="860.17" y="174.68" width="20.06" height="6.26"/><rect class="cls-2" x="880.23" y="167.37" width="20.06" height="13.57"/><rect class="cls-2" x="880.23" y="161.11" width="40.87" height="6.26"/><rect class="cls-2" x="921.1" y="148.66" width="39.88" height="12.45"/><rect class="cls-2" x="921.1" y="99.72" width="20.06" height="42.68"/><rect class="cls-2" x="921.1" y="31.01" width="20.06" height="49.93"/><rect class="cls-2" x="139.77" y="168.42" width="19.33" height="6.26"/><rect class="cls-2" x="120.44" y="162.38" width="19.33" height="6.03"/><rect class="cls-2" x="101.1" y="156.34" width="19.33" height="6.03"/><rect class="cls-2" x="60.21" y="149.51" width="19.33" height="6.03"/><rect class="cls-2" y="155.54" width="19.33" height="6.61"/><rect class="cls-2" x="25.41" y="168.07" width="32.65" height="6.61"/><rect class="cls-2" x="18.55" y="124.67" width="20.93" height="6.03"/><rect class="cls-2" x="39.48" y="118.64" width="20.93" height="6.03"/><rect class="cls-2" x="0.81" y="112.6" width="38.66" height="6.03"/><rect class="cls-2" x="0.81" y="124.68" width="19.33" height="18.33"/><rect class="cls-2" x="19.33" y="143.01" width="19.36" height="12.53"/><rect class="cls-2" x="19.33" y="162.15" width="19.36" height="12.54"/><rect class="cls-2" x="1.25" y="31.69" width="19.33" height="82.4"/><rect class="cls-2" x="20.58" width="100.29" height="6.26"/><rect class="cls-2" x="101.54" width="19.33" height="12.52"/><rect class="cls-2" x="1.25" y="12.65" width="19.33" height="6.03"/><rect class="cls-2" x="61.06" y="25.18" width="19.33" height="6.03"/><rect class="cls-2" x="102.92" y="31.69" width="19.33" height="6.03"/><rect class="cls-2" x="160.99" y="6.26" width="19.33" height="12.3"/><polygon class="cls-2" points="220.52 6.26 220.52 6.49 220.49 18.56 201.16 18.56 201.19 6.26 220.52 6.26"/><rect class="cls-2" x="120.87" y="6.49" width="19.33" height="6.03"/><rect class="cls-2" x="220.49" y="0.45" width="98.87" height="6.03"/><rect class="cls-2" x="180.32" y="18.56" width="20.84" height="6.03"/><rect class="cls-2" x="318.76" y="10.15" width="20.86" height="8.29"/><rect class="cls-2" x="298.52" y="6.37" width="41.1" height="6.03"/><rect class="cls-2" x="560.26" y="6.37" width="62.21" height="6.03"/><rect class="cls-2" x="779.88" y="6.37" width="19.33" height="6.03"/><rect class="cls-2" x="799.21" y="12.41" width="40.7" height="6.03"/><rect class="cls-2" x="822.26" y="6.37" width="40.7" height="6.03"/><rect class="cls-2" x="862.96" y="0.45" width="38.08" height="6.03"/><rect class="cls-2" x="622.47" y="0.45" width="176.74" height="6.03"/><rect class="cls-2" x="339.62" y="0.45" width="220.64" height="6.03"/><rect class="cls-2" x="140.2" y="0.45" width="40.12" height="6.03"/><rect class="cls-2" x="20.58" y="18.68" width="19.33" height="13"/><rect class="cls-2" x="20.58" y="4.08" width="19.33" height="8.57"/></g></g></svg>